<svg xmlns="http://www.w3.org/2000/svg" width="2816" height="1536" viewBox="0 0 2816 1536" version="1.1"><path d="M 1655 328.941 C 1649.775 332.150, 1638.525 338.958, 1630 344.071 C 1606.431 358.207, 1578.907 374.857, 1565.051 383.360 C 1558.205 387.562, 1552.252 391, 1551.822 391 C 1551.393 391, 1545.970 388.135, 1539.771 384.633 C 1533.572 381.131, 1519.500 373.195, 1508.500 366.998 C 1497.500 360.801, 1485.125 353.805, 1481 351.453 C 1467.513 343.761, 1456.167 341.497, 1445.500 344.371 C 1441.142 345.544, 1430.416 350.691, 1427.500 353.007 C 1426.608 353.716, 1363.959 391.631, 1324.500 415.342 C 1316.250 420.300, 1302.075 428.846, 1293 434.333 C 1283.925 439.821, 1260.151 454.156, 1240.168 466.189 C 1199.112 490.913, 1185.684 499.477, 1181.837 503.390 C 1174.559 510.793, 1173.139 519.867, 1173.371 557.500 C 1173.517 581.327, 1174.134 583.851, 1181.697 591.595 C 1186.348 596.356, 1207.541 609.252, 1228 619.769 C 1229.375 620.476, 1231.550 621.860, 1232.833 622.844 L 1235.166 624.634 1234.028 640.067 C 1233.401 648.555, 1233.181 659.550, 1233.537 664.500 C 1235.204 687.631, 1243.938 715.324, 1256.721 738 C 1267.365 756.883, 1267.893 757.718, 1278.802 772.903 C 1284.468 780.790, 1285.282 782.054, 1284.885 782.347 C 1284.673 782.504, 1279.855 786.615, 1274.179 791.482 C 1264.993 799.358, 1257.988 807, 1249.871 818 C 1242.917 827.424, 1236.814 843.969, 1233.421 862.596 C 1233.168 863.986, 1230.255 866.315, 1224.770 869.513 C 1184.145 893.197, 1182.637 894.285, 1178.293 903.038 L 1175.086 909.500 1174.793 937.500 L 1174.500 965.500 1177.240 971 C 1178.746 974.025, 1181.221 977.887, 1182.740 979.582 C 1185.481 982.644, 1194.295 988.999, 1201 992.749 C 1208.546 996.970, 1241.062 1015.579, 1272.500 1033.670 C 1290.650 1044.113, 1312.475 1056.651, 1321 1061.530 C 1329.525 1066.409, 1345.725 1075.868, 1357 1082.549 C 1393.589 1104.231, 1403.042 1107.837, 1416.179 1105.124 C 1423.381 1103.636, 1427.533 1101.643, 1443.437 1092.038 C 1449.847 1088.167, 1455.317 1085, 1455.593 1085 C 1455.870 1085, 1458.558 1083.425, 1461.567 1081.500 C 1464.577 1079.575, 1467.480 1078, 1468.019 1078 C 1468.559 1078, 1469 1077.550, 1469 1077 C 1469 1076.450, 1469.407 1076, 1469.904 1076 C 1470.401 1076, 1479.738 1070.676, 1490.654 1064.169 C 1501.569 1057.661, 1515.900 1049.166, 1522.500 1045.291 C 1529.100 1041.415, 1537.082 1036.727, 1540.239 1034.872 C 1545.048 1032.046, 1564.359 1020.360, 1604.500 995.986 C 1619.445 986.911, 1625.458 981.037, 1627.517 973.500 C 1627.968 971.850, 1628.442 953.850, 1628.570 933.500 C 1628.796 897.692, 1628.694 895.440, 1625.410 863.602 C 1621.608 826.738, 1621.272 825.548, 1612.744 818.732 C 1607.534 814.566, 1572.653 793.814, 1553.500 783.485 C 1549.650 781.408, 1546.050 779.369, 1545.500 778.952 C 1542.525 776.701, 1525.449 768, 1524.005 768 C 1523.073 768, 1521.490 768.906, 1520.487 770.014 C 1519.485 771.122, 1516.265 773.621, 1513.332 775.568 C 1510.400 777.514, 1508.013 779.420, 1508.028 779.803 C 1508.044 780.187, 1511.982 782.804, 1516.778 785.619 C 1521.575 788.435, 1530.133 793.497, 1535.797 796.869 C 1541.460 800.241, 1546.286 803, 1546.523 803 C 1546.759 803, 1551.351 805.607, 1556.726 808.794 C 1562.102 811.981, 1571.783 817.494, 1578.239 821.044 C 1584.696 824.595, 1589.983 827.725, 1589.988 828 C 1589.992 828.275, 1588.908 829.175, 1587.577 830 C 1579.783 834.833, 1554.067 852.636, 1551.747 854.805 C 1548.263 858.063, 1544.993 864.753, 1545.022 868.566 C 1545.052 872.636, 1548.496 879.831, 1551.768 882.661 C 1554.212 884.775, 1565.220 891.458, 1586.750 903.899 C 1590.737 906.203, 1594 908.457, 1594 908.908 C 1594 909.893, 1566.095 926.966, 1531 947.452 C 1524.675 951.145, 1517.475 955.405, 1515 956.919 C 1510.820 959.477, 1491.933 970.709, 1441.048 1000.898 C 1429.799 1007.572, 1418.774 1013.525, 1416.548 1014.127 C 1410.980 1015.634, 1401.934 1014.511, 1396.246 1011.606 C 1391.896 1009.385, 1382.755 1004.122, 1360 990.740 C 1349.677 984.668, 1287.403 948.873, 1273.500 941.019 C 1268 937.912, 1257.650 931.984, 1250.500 927.845 C 1243.350 923.706, 1231.425 916.829, 1224 912.563 C 1216.575 908.296, 1210.050 904.371, 1209.500 903.841 C 1208.430 902.808, 1208.589 902.686, 1217.980 897.382 C 1221.016 895.667, 1225.525 893.085, 1228 891.644 C 1233.472 888.458, 1233.771 888.433, 1233.620 891.170 C 1233.479 893.718, 1228.823 890.828, 1299 931.750 C 1313.575 940.249, 1333.431 951.861, 1343.125 957.553 C 1372.854 975.013, 1379.975 978, 1391.868 978 C 1405.461 978, 1422.067 968.679, 1439.511 951.258 C 1449.389 941.393, 1456.259 930.963, 1459.683 920.631 C 1462.118 913.281, 1462.381 911.058, 1462.411 897.500 C 1462.449 880.515, 1461.875 872.009, 1460.691 872.004 C 1460.246 872.002, 1460.226 871.444, 1460.646 870.764 C 1462.699 867.442, 1458.127 845.952, 1452.506 832.500 C 1451.586 830.300, 1448.297 823.366, 1445.195 817.091 C 1439.917 806.412, 1439.675 805.612, 1441.413 804.591 C 1442.433 803.991, 1445.795 801.673, 1448.884 799.440 C 1451.973 797.207, 1459.225 792.032, 1465 787.940 C 1470.775 783.848, 1479.273 777.698, 1483.884 774.274 C 1488.495 770.849, 1492.658 768.288, 1493.134 768.583 C 1493.610 768.877, 1494 768.523, 1494 767.796 C 1494 767.068, 1501.758 760.629, 1511.240 753.487 C 1551.074 723.479, 1571.395 697.320, 1579.617 665.461 C 1582.172 655.562, 1582.429 653.047, 1582.272 639.500 C 1582.176 631.250, 1581.963 622.710, 1581.799 620.523 L 1581.500 616.547 1591.500 610.799 C 1609.556 600.420, 1615.868 595.881, 1618.968 591.046 C 1623.048 584.684, 1624.175 578.776, 1623.015 569.841 C 1621.679 559.551, 1621.737 524.805, 1623.096 521.315 C 1624.743 517.088, 1624.223 505.439, 1621.544 486.500 C 1620.221 477.150, 1618.850 467.207, 1618.497 464.405 L 1617.855 459.310 1628.177 452.765 C 1639.553 445.553, 1669.662 427.223, 1715.323 399.714 C 1731.726 389.832, 1744.776 381.402, 1744.323 380.981 C 1743.552 380.265, 1740.245 379.835, 1724.750 378.435 C 1721.313 378.125, 1712.200 377.215, 1704.500 376.412 C 1696.800 375.610, 1685.849 374.551, 1680.165 374.059 C 1674.481 373.567, 1669.531 372.865, 1669.165 372.500 C 1668.799 372.135, 1668.050 360.998, 1667.500 347.749 C 1666.905 333.413, 1666.095 323.550, 1665.500 323.385 C 1664.950 323.233, 1660.225 325.733, 1655 328.941 M 1447.769 365.512 C 1445.716 366.266, 1435.366 372.149, 1424.769 378.587 C 1414.171 385.024, 1387.275 401.323, 1365 414.808 C 1342.725 428.292, 1311.900 446.967, 1296.500 456.307 C 1281.100 465.647, 1262.650 476.788, 1255.500 481.065 C 1248.350 485.341, 1240.700 489.942, 1238.500 491.290 C 1236.300 492.637, 1227.172 498.121, 1218.214 503.476 L 1201.929 513.213 1204.818 514.857 C 1206.407 515.760, 1213.286 519.610, 1220.104 523.410 C 1231.122 529.552, 1258.852 545.441, 1277 556.012 C 1280.575 558.095, 1290.475 563.726, 1299 568.528 C 1307.525 573.329, 1316.525 578.493, 1319 580.003 C 1321.475 581.513, 1325.975 584.082, 1329 585.712 C 1338.264 590.703, 1367.438 607.164, 1368.500 608 C 1370.927 609.910, 1390.004 620.540, 1394.911 622.717 C 1401.276 625.540, 1409.769 625.986, 1415.029 623.772 C 1418.041 622.504, 1428.779 616.161, 1451.500 602.225 C 1454.250 600.538, 1466.625 593.117, 1479 585.733 C 1491.375 578.349, 1510.950 566.564, 1522.500 559.544 C 1542.793 547.210, 1561.939 535.760, 1576.500 527.250 C 1580.350 525, 1585.684 521.594, 1588.353 519.682 L 1593.206 516.205 1588.353 513.463 C 1585.684 511.954, 1580.575 509.028, 1577 506.960 C 1573.425 504.891, 1564.875 500.161, 1558 496.449 C 1542.744 488.211, 1539.674 485.940, 1537.447 481.248 C 1535.266 476.651, 1535.215 468.420, 1537.342 464.306 C 1539.839 459.477, 1549.345 452.531, 1574.690 437.016 C 1578.644 434.595, 1581.659 432.258, 1581.390 431.822 C 1580.862 430.968, 1573.346 426.545, 1557.500 417.763 C 1552 414.715, 1543.675 410.004, 1539 407.294 C 1534.325 404.583, 1527.575 400.770, 1524 398.819 C 1520.425 396.869, 1512.550 392.450, 1506.500 389 C 1473.723 370.311, 1466.194 366.171, 1463.101 365.137 C 1458.655 363.650, 1452.422 363.802, 1447.769 365.512 M 1375.286 444.336 C 1370.769 447.176, 1366.618 449.961, 1366.061 450.525 C 1365.374 451.222, 1372.302 455.546, 1387.692 464.025 C 1400.145 470.886, 1415.321 479.249, 1421.417 482.609 C 1440.201 492.963, 1465.623 507.200, 1485.294 518.383 C 1495.631 524.260, 1505.413 529.333, 1507.032 529.656 C 1509.339 530.118, 1511.446 529.356, 1516.790 526.127 C 1528.590 518.997, 1528.730 520.327, 1515.338 512.314 C 1505.619 506.498, 1478.529 491.069, 1459.500 480.511 C 1457.300 479.290, 1446.050 472.994, 1434.500 466.521 C 1400.460 447.441, 1384.979 438.994, 1384.216 439.086 C 1383.822 439.134, 1379.804 441.496, 1375.286 444.336 M 1576.758 460.328 C 1567.001 466.472, 1559.013 471.816, 1559.008 472.203 C 1559.004 472.590, 1565.412 476.690, 1573.250 481.314 C 1598.011 495.924, 1602 498.026, 1602 496.462 C 1602 494.753, 1597.265 456.930, 1596.465 452.250 C 1596.159 450.462, 1595.592 449.035, 1595.205 449.078 C 1594.817 449.121, 1586.516 454.183, 1576.758 460.328 M 1333.492 469.828 C 1330.196 471.934, 1325.936 474.609, 1324.024 475.773 C 1320.887 477.683, 1320.740 477.961, 1322.524 478.621 C 1323.611 479.024, 1330.575 482.808, 1338 487.031 C 1355.693 497.092, 1373.432 506.987, 1407 525.519 C 1439.204 543.298, 1441.426 544.530, 1454.207 551.710 C 1461.476 555.793, 1464.490 556.991, 1466.207 556.480 C 1468.997 555.649, 1482.969 546.772, 1482.987 545.818 C 1483.009 544.638, 1477.989 541.529, 1461.500 532.513 C 1452.700 527.701, 1442.575 522.068, 1439 519.995 C 1435.425 517.922, 1430.700 515.227, 1428.500 514.006 C 1416.185 507.173, 1396.521 496.182, 1390 492.487 C 1367.495 479.735, 1341.994 466, 1340.824 466 C 1340.086 466, 1336.787 467.723, 1333.492 469.828 M 1287.554 498.271 L 1277.905 504.251 1281.227 506.508 C 1284.704 508.871, 1289.304 511.480, 1320.500 528.781 C 1330.950 534.576, 1343.775 541.726, 1349 544.669 C 1354.225 547.613, 1360.813 551.210, 1363.639 552.664 L 1368.778 555.308 1373.639 552.373 C 1376.313 550.759, 1380.638 548.328, 1383.250 546.971 C 1385.863 545.613, 1387.866 544.098, 1387.701 543.602 C 1387.536 543.107, 1384.273 540.921, 1380.450 538.745 C 1371.652 533.738, 1323.097 506.602, 1308.351 498.452 L 1297.202 492.290 1287.554 498.271 M 1194.166 553.801 C 1194.498 575.431, 1194.514 575.566, 1197 578.163 C 1198.375 579.599, 1206.475 584.703, 1215 589.505 C 1223.525 594.306, 1233.425 599.931, 1237 602.003 C 1244.966 606.621, 1262.892 616.826, 1273 622.498 C 1280.881 626.921, 1286.841 630.273, 1293.500 634.028 C 1295.700 635.268, 1298.688 637.007, 1300.140 637.892 C 1305.729 641.297, 1314.749 646.438, 1342.500 662.037 C 1349.650 666.056, 1362.250 673.268, 1370.500 678.063 C 1378.750 682.859, 1387.166 687.712, 1389.203 688.848 C 1393.560 691.278, 1403.803 694.127, 1404.445 693.088 C 1404.691 692.691, 1404.803 682.070, 1404.696 669.485 L 1404.500 646.603 1398.500 645.456 C 1391.635 644.145, 1381.571 639.620, 1372.057 633.569 C 1368.451 631.275, 1359.425 626.092, 1352 622.052 C 1344.575 618.011, 1335.642 612.972, 1332.148 610.853 C 1328.654 608.734, 1325.609 607, 1325.381 607 C 1325.153 607, 1321.711 605.041, 1317.733 602.648 C 1310.554 598.328, 1285.170 583.743, 1277.500 579.531 C 1275.300 578.323, 1267.200 573.716, 1259.500 569.293 C 1251.800 564.870, 1238.075 557.066, 1229 551.951 C 1219.925 546.835, 1208.300 540.265, 1203.166 537.350 L 1193.832 532.050 1194.166 553.801 M 1254.452 643.665 C 1251.485 675.328, 1261.812 710.303, 1284.521 745.500 C 1291.674 756.587, 1301.777 770.666, 1307.330 777.285 C 1314.391 785.702, 1332.974 806.979, 1342.472 817.521 C 1371.511 849.753, 1385.854 869.218, 1397.752 892.543 C 1405.830 908.378, 1411.612 928.493, 1412.247 942.966 C 1412.648 952.128, 1415.062 949.623, 1418.478 936.500 C 1423.242 918.196, 1420.380 898.325, 1409.769 876.033 C 1405.276 866.594, 1388.451 842.040, 1378.568 830.500 C 1368.434 818.666, 1357.993 806.778, 1353.759 802.250 C 1339.827 787.354, 1389.151 828.090, 1409.096 847.952 C 1424.798 863.590, 1437.956 881.590, 1441.659 892.500 L 1443.017 896.500 1442.438 890.500 C 1441.402 879.760, 1439.051 871.683, 1433.995 861.500 C 1424.511 842.398, 1408.456 823.806, 1377.493 796.069 C 1356.690 777.432, 1350.146 771.028, 1340.126 759.500 C 1324.450 741.464, 1315.469 728.321, 1308.685 713.487 C 1301.446 697.658, 1298.869 687.617, 1298.263 672.864 L 1297.743 660.229 1278.621 649.444 C 1268.105 643.512, 1258.528 638.036, 1257.341 637.274 C 1255.212 635.908, 1255.171 635.999, 1254.452 643.665 M 1491.500 670.836 C 1488.750 672.375, 1474.350 680.939, 1459.500 689.867 C 1444.650 698.794, 1429.350 707.658, 1425.500 709.565 C 1410.277 717.105, 1398.861 716.473, 1380.383 707.066 C 1367.226 700.368, 1367.401 699.883, 1376.396 718.134 C 1381.886 729.274, 1388.829 739.643, 1390.604 739.354 C 1391.097 739.274, 1394.086 738.915, 1397.246 738.556 C 1412.463 736.828, 1428.294 730.476, 1450 717.387 C 1471.142 704.638, 1475.418 701.920, 1477.750 699.748 C 1479.910 697.735, 1479.999 697.728, 1479.985 699.576 C 1479.918 708.372, 1471.604 727.271, 1463.315 737.468 C 1456.523 745.825, 1442.213 758.147, 1428.577 767.383 C 1422.210 771.696, 1417 775.434, 1417 775.689 C 1417 775.945, 1418.281 777.435, 1419.848 779.001 C 1421.414 780.568, 1423.910 783.293, 1425.394 785.057 L 1428.094 788.265 1431.586 786.384 C 1435.463 784.296, 1452.769 772.040, 1457.469 768.054 C 1465.459 761.277, 1476.681 749.849, 1481.088 744 C 1495.343 725.083, 1502.896 699.453, 1499.949 680 C 1498.520 670.565, 1497.925 667.998, 1497.171 668.018 C 1496.802 668.028, 1494.250 669.296, 1491.500 670.836 M 1330.500 842.503 C 1315.414 852.656, 1301.765 874.709, 1299.555 892.500 C 1297.983 905.162, 1298.004 906.696, 1299.776 908.227 C 1302.114 910.246, 1313.875 917, 1315.054 917 C 1315.574 917, 1316 914.638, 1316 911.750 C 1316.001 899.993, 1320.253 884.937, 1326.314 875.235 C 1330.189 869.031, 1340.249 858.440, 1344.214 856.389 C 1345.746 855.597, 1347 854.602, 1347 854.178 C 1347 853.754, 1344.188 850.348, 1340.750 846.609 L 1334.500 839.811 1330.500 842.503 M 1593 850.678 C 1583.581 857.104, 1569 867.937, 1569 868.510 C 1569 869.042, 1584.316 878.545, 1591.500 882.470 C 1595.350 884.573, 1600.453 887.420, 1602.840 888.795 L 1607.181 891.296 1606.624 885.898 C 1606.317 882.929, 1605.549 874.425, 1604.917 867 C 1604.285 859.575, 1603.482 851.407, 1603.134 848.849 L 1602.500 844.198 1593 850.678 M 1354.827 874.733 C 1341.176 885.945, 1336.623 896.978, 1337.169 917.517 C 1337.548 931.757, 1336.170 929.600, 1350.500 938.395 C 1361.116 944.911, 1384.938 957, 1387.163 957 C 1390.444 957, 1391.296 953.310, 1390.725 941.570 C 1390.068 928.044, 1386.988 916.734, 1380.023 902.266 C 1373.284 888.268, 1362.204 872, 1359.409 872 C 1358.719 872, 1356.656 873.230, 1354.827 874.733 M 1195.060 937.250 C 1195.131 957.977, 1195.872 963.340, 1199.104 966.521 C 1201.123 968.508, 1239.062 990.948, 1270 1008.455 C 1274.675 1011.100, 1285.925 1017.644, 1295 1022.997 C 1304.075 1028.349, 1316 1035.304, 1321.500 1038.452 C 1327 1041.599, 1344.550 1051.837, 1360.500 1061.202 C 1398.824 1083.704, 1401.313 1085, 1406.205 1085 C 1409.529 1085, 1410.042 1084.755, 1409.098 1083.618 C 1408.291 1082.646, 1408.033 1075.482, 1408.226 1059.446 L 1408.500 1036.656 1401.361 1034.897 C 1393.308 1032.912, 1384.732 1028.828, 1368 1019.009 C 1361.675 1015.297, 1349.525 1008.311, 1341 1003.483 C 1332.475 998.656, 1316.950 989.658, 1306.500 983.489 C 1296.050 977.319, 1284.364 970.523, 1280.531 968.386 C 1272.334 963.816, 1268.227 961.409, 1248.931 949.871 C 1228.459 937.630, 1197.232 920, 1196.022 920 C 1195.363 920, 1195.021 926.127, 1195.060 937.250" stroke="none" fill="#44946c" fill-rule="evenodd"/><path d="M 1447.769 365.512 C 1445.716 366.266, 1435.366 372.149, 1424.769 378.587 C 1414.171 385.024, 1387.275 401.323, 1365 414.808 C 1342.725 428.292, 1311.900 446.967, 1296.500 456.307 C 1281.100 465.647, 1262.650 476.788, 1255.500 481.065 C 1248.350 485.341, 1240.700 489.942, 1238.500 491.290 C 1236.300 492.637, 1227.172 498.121, 1218.214 503.476 L 1201.929 513.213 1204.818 514.857 C 1206.407 515.760, 1213.286 519.610, 1220.104 523.410 C 1231.122 529.552, 1258.852 545.441, 1277 556.012 C 1280.575 558.095, 1290.475 563.726, 1299 568.528 C 1307.525 573.329, 1316.525 578.493, 1319 580.003 C 1321.475 581.513, 1325.975 584.082, 1329 585.712 C 1338.264 590.703, 1367.438 607.164, 1368.500 608 C 1370.927 609.910, 1390.004 620.540, 1394.911 622.717 C 1401.276 625.540, 1409.769 625.986, 1415.029 623.772 C 1418.041 622.504, 1428.779 616.161, 1451.500 602.225 C 1454.250 600.538, 1466.625 593.117, 1479 585.733 C 1491.375 578.349, 1510.950 566.564, 1522.500 559.544 C 1542.793 547.210, 1561.939 535.760, 1576.500 527.250 C 1580.350 525, 1585.684 521.594, 1588.353 519.682 L 1593.206 516.205 1588.353 513.463 C 1585.684 511.954, 1580.575 509.028, 1577 506.960 C 1573.425 504.891, 1564.875 500.161, 1558 496.449 C 1542.744 488.211, 1539.674 485.940, 1537.447 481.248 C 1535.266 476.651, 1535.215 468.420, 1537.342 464.306 C 1539.839 459.477, 1549.345 452.531, 1574.690 437.016 C 1578.644 434.595, 1581.659 432.258, 1581.390 431.822 C 1580.862 430.968, 1573.346 426.545, 1557.500 417.763 C 1552 414.715, 1543.675 410.004, 1539 407.294 C 1534.325 404.583, 1527.575 400.770, 1524 398.819 C 1520.425 396.869, 1512.550 392.450, 1506.500 389 C 1473.723 370.311, 1466.194 366.171, 1463.101 365.137 C 1458.655 363.650, 1452.422 363.802, 1447.769 365.512 M 1375.286 444.336 C 1370.769 447.176, 1366.618 449.961, 1366.061 450.525 C 1365.374 451.222, 1372.302 455.546, 1387.692 464.025 C 1400.145 470.886, 1415.321 479.249, 1421.417 482.609 C 1440.201 492.963, 1465.623 507.200, 1485.294 518.383 C 1495.631 524.260, 1505.413 529.333, 1507.032 529.656 C 1509.339 530.118, 1511.446 529.356, 1516.790 526.127 C 1528.590 518.997, 1528.730 520.327, 1515.338 512.314 C 1505.619 506.498, 1478.529 491.069, 1459.500 480.511 C 1457.300 479.290, 1446.050 472.994, 1434.500 466.521 C 1400.460 447.441, 1384.979 438.994, 1384.216 439.086 C 1383.822 439.134, 1379.804 441.496, 1375.286 444.336 M 1576.758 460.328 C 1567.001 466.472, 1559.013 471.816, 1559.008 472.203 C 1559.004 472.590, 1565.412 476.690, 1573.250 481.314 C 1598.011 495.924, 1602 498.026, 1602 496.462 C 1602 494.753, 1597.265 456.930, 1596.465 452.250 C 1596.159 450.462, 1595.592 449.035, 1595.205 449.078 C 1594.817 449.121, 1586.516 454.183, 1576.758 460.328 M 1333.492 469.828 C 1330.196 471.934, 1325.936 474.609, 1324.024 475.773 C 1320.887 477.683, 1320.740 477.961, 1322.524 478.621 C 1323.611 479.024, 1330.575 482.808, 1338 487.031 C 1355.693 497.092, 1373.432 506.987, 1407 525.519 C 1439.204 543.298, 1441.426 544.530, 1454.207 551.710 C 1461.476 555.793, 1464.490 556.991, 1466.207 556.480 C 1468.997 555.649, 1482.969 546.772, 1482.987 545.818 C 1483.009 544.638, 1477.989 541.529, 1461.500 532.513 C 1452.700 527.701, 1442.575 522.068, 1439 519.995 C 1435.425 517.922, 1430.700 515.227, 1428.500 514.006 C 1416.185 507.173, 1396.521 496.182, 1390 492.487 C 1367.495 479.735, 1341.994 466, 1340.824 466 C 1340.086 466, 1336.787 467.723, 1333.492 469.828 M 1287.554 498.271 L 1277.905 504.251 1281.227 506.508 C 1284.704 508.871, 1289.304 511.480, 1320.500 528.781 C 1330.950 534.576, 1343.775 541.726, 1349 544.669 C 1354.225 547.613, 1360.813 551.210, 1363.639 552.664 L 1368.778 555.308 1373.639 552.373 C 1376.313 550.759, 1380.638 548.328, 1383.250 546.971 C 1385.863 545.613, 1387.866 544.098, 1387.701 543.602 C 1387.536 543.107, 1384.273 540.921, 1380.450 538.745 C 1371.652 533.738, 1323.097 506.602, 1308.351 498.452 L 1297.202 492.290 1287.554 498.271 M 1194.166 553.801 C 1194.498 575.431, 1194.514 575.566, 1197 578.163 C 1198.375 579.599, 1206.475 584.703, 1215 589.505 C 1223.525 594.306, 1233.425 599.931, 1237 602.003 C 1244.966 606.621, 1262.892 616.826, 1273 622.498 C 1280.881 626.921, 1286.841 630.273, 1293.500 634.028 C 1295.700 635.268, 1298.688 637.007, 1300.140 637.892 C 1305.729 641.297, 1314.749 646.438, 1342.500 662.037 C 1349.650 666.056, 1362.250 673.268, 1370.500 678.063 C 1378.750 682.859, 1387.166 687.712, 1389.203 688.848 C 1393.560 691.278, 1403.803 694.127, 1404.445 693.088 C 1404.691 692.691, 1404.803 682.070, 1404.696 669.485 L 1404.500 646.603 1398.500 645.456 C 1391.635 644.145, 1381.571 639.620, 1372.057 633.569 C 1368.451 631.275, 1359.425 626.092, 1352 622.052 C 1344.575 618.011, 1335.642 612.972, 1332.148 610.853 C 1328.654 608.734, 1325.609 607, 1325.381 607 C 1325.153 607, 1321.711 605.041, 1317.733 602.648 C 1310.554 598.328, 1285.170 583.743, 1277.500 579.531 C 1275.300 578.323, 1267.200 573.716, 1259.500 569.293 C 1251.800 564.870, 1238.075 557.066, 1229 551.951 C 1219.925 546.835, 1208.300 540.265, 1203.166 537.350 L 1193.832 532.050 1194.166 553.801 M 1254.452 643.665 C 1251.485 675.328, 1261.812 710.303, 1284.521 745.500 C 1291.674 756.587, 1301.777 770.666, 1307.330 777.285 C 1314.391 785.702, 1332.974 806.979, 1342.472 817.521 C 1371.511 849.753, 1385.854 869.218, 1397.752 892.543 C 1405.830 908.378, 1411.612 928.493, 1412.247 942.966 C 1412.648 952.128, 1415.062 949.623, 1418.478 936.500 C 1423.242 918.196, 1420.380 898.325, 1409.769 876.033 C 1405.276 866.594, 1388.451 842.040, 1378.568 830.500 C 1368.434 818.666, 1357.993 806.778, 1353.759 802.250 C 1339.827 787.354, 1389.151 828.090, 1409.096 847.952 C 1424.798 863.590, 1437.956 881.590, 1441.659 892.500 L 1443.017 896.500 1442.438 890.500 C 1441.402 879.760, 1439.051 871.683, 1433.995 861.500 C 1424.511 842.398, 1408.456 823.806, 1377.493 796.069 C 1356.690 777.432, 1350.146 771.028, 1340.126 759.500 C 1324.450 741.464, 1315.469 728.321, 1308.685 713.487 C 1301.446 697.658, 1298.869 687.617, 1298.263 672.864 L 1297.743 660.229 1278.621 649.444 C 1268.105 643.512, 1258.528 638.036, 1257.341 637.274 C 1255.212 635.908, 1255.171 635.999, 1254.452 643.665 M 1491.500 670.836 C 1488.750 672.375, 1474.350 680.939, 1459.500 689.867 C 1444.650 698.794, 1429.350 707.658, 1425.500 709.565 C 1410.277 717.105, 1398.861 716.473, 1380.383 707.066 C 1367.226 700.368, 1367.401 699.883, 1376.396 718.134 C 1381.886 729.274, 1388.829 739.643, 1390.604 739.354 C 1391.097 739.274, 1394.086 738.915, 1397.246 738.556 C 1412.463 736.828, 1428.294 730.476, 1450 717.387 C 1471.142 704.638, 1475.418 701.920, 1477.750 699.748 C 1479.910 697.735, 1479.999 697.728, 1479.985 699.576 C 1479.918 708.372, 1471.604 727.271, 1463.315 737.468 C 1456.523 745.825, 1442.213 758.147, 1428.577 767.383 C 1422.210 771.696, 1417 775.434, 1417 775.689 C 1417 775.945, 1418.281 777.435, 1419.848 779.001 C 1421.414 780.568, 1423.910 783.293, 1425.394 785.057 L 1428.094 788.265 1431.586 786.384 C 1435.463 784.296, 1452.769 772.040, 1457.469 768.054 C 1465.459 761.277, 1476.681 749.849, 1481.088 744 C 1495.343 725.083, 1502.896 699.453, 1499.949 680 C 1498.520 670.565, 1497.925 667.998, 1497.171 668.018 C 1496.802 668.028, 1494.250 669.296, 1491.500 670.836 M 1483.899 774.262 C 1479.280 777.693, 1470.775 783.848, 1465 787.940 C 1459.225 792.032, 1451.973 797.207, 1448.884 799.440 C 1445.795 801.673, 1442.433 803.991, 1441.413 804.591 C 1439.675 805.612, 1439.917 806.412, 1445.195 817.091 C 1448.297 823.366, 1451.586 830.300, 1452.506 832.500 C 1458.127 845.952, 1462.699 867.442, 1460.646 870.764 C 1460.226 871.444, 1460.246 872.002, 1460.691 872.004 C 1461.875 872.009, 1462.449 880.515, 1462.411 897.500 C 1462.381 911.058, 1462.118 913.281, 1459.683 920.631 C 1456.259 930.963, 1449.389 941.393, 1439.511 951.258 C 1422.067 968.679, 1405.461 978, 1391.868 978 C 1379.975 978, 1372.854 975.013, 1343.125 957.553 C 1333.431 951.861, 1313.575 940.249, 1299 931.750 C 1228.823 890.828, 1233.479 893.718, 1233.620 891.170 C 1233.771 888.433, 1233.472 888.458, 1228 891.644 C 1225.525 893.085, 1221.016 895.667, 1217.980 897.382 C 1208.589 902.686, 1208.430 902.808, 1209.500 903.841 C 1210.050 904.371, 1216.575 908.296, 1224 912.563 C 1231.425 916.829, 1243.350 923.706, 1250.500 927.845 C 1257.650 931.984, 1268 937.912, 1273.500 941.019 C 1287.403 948.873, 1349.677 984.668, 1360 990.740 C 1382.755 1004.122, 1391.896 1009.385, 1396.246 1011.606 C 1401.934 1014.511, 1410.980 1015.634, 1416.548 1014.127 C 1418.774 1013.525, 1429.799 1007.572, 1441.048 1000.898 C 1491.933 970.709, 1510.820 959.477, 1515 956.919 C 1517.475 955.405, 1524.675 951.145, 1531 947.452 C 1566.095 926.966, 1594 909.893, 1594 908.908 C 1594 908.457, 1590.737 906.203, 1586.750 903.899 C 1565.220 891.458, 1554.212 884.775, 1551.768 882.661 C 1548.496 879.831, 1545.052 872.636, 1545.022 868.566 C 1544.993 864.753, 1548.263 858.063, 1551.747 854.805 C 1554.067 852.636, 1579.783 834.833, 1587.577 830 C 1588.908 829.175, 1589.992 828.275, 1589.988 828 C 1589.983 827.725, 1584.696 824.595, 1578.239 821.044 C 1571.783 817.494, 1562.102 811.981, 1556.726 808.794 C 1551.351 805.607, 1546.759 803, 1546.523 803 C 1546.286 803, 1541.460 800.241, 1535.797 796.869 C 1530.133 793.497, 1521.573 788.435, 1516.773 785.619 C 1511.784 782.693, 1508.231 779.980, 1508.478 779.286 C 1508.955 777.943, 1506.309 775.915, 1497.899 771.179 L 1492.299 768.024 1483.899 774.262 M 1330.500 842.503 C 1315.414 852.656, 1301.765 874.709, 1299.555 892.500 C 1297.983 905.162, 1298.004 906.696, 1299.776 908.227 C 1302.114 910.246, 1313.875 917, 1315.054 917 C 1315.574 917, 1316 914.638, 1316 911.750 C 1316.001 899.993, 1320.253 884.937, 1326.314 875.235 C 1330.189 869.031, 1340.249 858.440, 1344.214 856.389 C 1345.746 855.597, 1347 854.602, 1347 854.178 C 1347 853.754, 1344.188 850.348, 1340.750 846.609 L 1334.500 839.811 1330.500 842.503 M 1593 850.678 C 1583.581 857.104, 1569 867.937, 1569 868.510 C 1569 869.042, 1584.316 878.545, 1591.500 882.470 C 1595.350 884.573, 1600.453 887.420, 1602.840 888.795 L 1607.181 891.296 1606.624 885.898 C 1606.317 882.929, 1605.549 874.425, 1604.917 867 C 1604.285 859.575, 1603.482 851.407, 1603.134 848.849 L 1602.500 844.198 1593 850.678 M 1354.827 874.733 C 1341.176 885.945, 1336.623 896.978, 1337.169 917.517 C 1337.548 931.757, 1336.170 929.600, 1350.500 938.395 C 1361.116 944.911, 1384.938 957, 1387.163 957 C 1390.444 957, 1391.296 953.310, 1390.725 941.570 C 1390.068 928.044, 1386.988 916.734, 1380.023 902.266 C 1373.284 888.268, 1362.204 872, 1359.409 872 C 1358.719 872, 1356.656 873.230, 1354.827 874.733 M 1195.060 937.250 C 1195.131 957.977, 1195.872 963.340, 1199.104 966.521 C 1201.123 968.508, 1239.062 990.948, 1270 1008.455 C 1274.675 1011.100, 1285.925 1017.644, 1295 1022.997 C 1304.075 1028.349, 1316 1035.304, 1321.500 1038.452 C 1327 1041.599, 1344.550 1051.837, 1360.500 1061.202 C 1398.824 1083.704, 1401.313 1085, 1406.205 1085 C 1409.529 1085, 1410.042 1084.755, 1409.098 1083.618 C 1408.291 1082.646, 1408.033 1075.482, 1408.226 1059.446 L 1408.500 1036.656 1401.361 1034.897 C 1393.308 1032.912, 1384.732 1028.828, 1368 1019.009 C 1361.675 1015.297, 1349.525 1008.311, 1341 1003.483 C 1332.475 998.656, 1316.950 989.658, 1306.500 983.489 C 1296.050 977.319, 1284.364 970.523, 1280.531 968.386 C 1272.334 963.816, 1268.227 961.409, 1248.931 949.871 C 1228.459 937.630, 1197.232 920, 1196.022 920 C 1195.363 920, 1195.021 926.127, 1195.060 937.250" stroke="none" fill="#f5fbf8" fill-rule="evenodd"/></svg>